<?xml version="1.0" encoding="UTF-8"?>
<svg width="24px" height="24px" viewBox="0 0 24 24" version="1.1" xmlns="http://www.w3.org/2000/svg" xmlns:xlink="http://www.w3.org/1999/xlink">
    <title>icon/navigation/caratRight</title>
    <g id="Symbols" stroke="none" stroke-width="1" fill="none" fill-rule="evenodd">
        <g id="Group-5" transform="translate(0.000000, 0.000000)">
            <polygon id="Stroke-1" stroke-opacity="0.0117647061" stroke="#191015" stroke-width="1.33333336e-11" points="0 0 23.999999 0 23.999999 23.999999 0 23.999999"></polygon>
            <path d="M8.29289268,5.29289286 C8.65337664,4.9324089 9.2206077,4.90467936 9.6128989,5.20970425 L9.70710624,5.29289286 L15.7071062,11.2928929 C16.0675902,11.6533768 16.0953197,12.2206079 15.7902948,12.6128991 L15.7071062,12.7071064 L9.70710624,18.7071064 C9.31658195,19.0976307 8.68341697,19.0976307 8.29289268,18.7071064 C7.93240872,18.3466225 7.90467918,17.7793914 8.20970407,17.3871002 L8.29289268,17.2928929 L13.585,11.9999996 L8.29289268,6.70710642 C7.93240872,6.34662246 7.90467918,5.7793914 8.20970407,5.3871002 L8.29289268,5.29289286 Z" id="Stroke-3" fill="#191015" fill-rule="nonzero"></path>
        </g>
    </g>
</svg>