<?xml version="1.0" encoding="UTF-8"?>
<svg width="24px" height="24px" viewBox="0 0 24 24" version="1.1" xmlns="http://www.w3.org/2000/svg" xmlns:xlink="http://www.w3.org/1999/xlink">
    <title>icon/general/community</title>
    <g id="Symbols" stroke="none" stroke-width="1" fill="none" fill-rule="evenodd">
        <g id="users" fill="#191015" transform="translate(0.000000, 2.000000)">
            <path d="M13,12 C15.6887547,12 17.8818181,14.1223067 17.9953805,16.7831104 L18,17 L18,19 C18,19.5522847 17.5522847,20 17,20 C16.4871642,20 16.0644928,19.6139598 16.0067277,19.1166211 L16,19 L16,17 C16,15.4023191 14.75108,14.0963391 13.1762728,14.0050927 L13,14 L5,14 C3.40231912,14 2.09633912,15.24892 2.00509269,16.8237272 L2,17 L2,19 C2,19.5522847 1.55228475,20 1,20 C0.487164161,20 0.0644928393,19.6139598 0.00672773133,19.1166211 L0,19 L0,17 C0,14.3112453 2.12230671,12.1181819 4.78311038,12.0046195 L5,12 L13,12 Z M9,0 C6.23857625,0 4,2.23857625 4,5 C4,7.76142375 6.23857625,10 9,10 C11.7614237,10 14,7.76142375 14,5 C14,2.23857625 11.7614237,0 9,0 Z M9,2 C10.6568542,2 12,3.34314575 12,5 C12,6.65685425 10.6568542,8 9,8 C7.34314575,8 6,6.65685425 6,5 C6,3.34314575 7.34314575,2 9,2 Z M19.0317541,12.8800003 C19.1698251,12.3452528 19.7152523,12.0236831 20.2499997,12.1617541 C22.3827066,12.712416 23.8947586,14.5896121 23.994728,16.773074 L24,17 L24,19 C24,19.5522847 23.5522847,20 23,20 C22.4871642,20 22.0644928,19.6139598 22.0067277,19.1166211 L22,19 L22.0000003,17.0007459 C21.9989805,15.6335842 21.0737494,14.440036 19.7500003,14.0982459 C19.2152528,13.9601749 18.8936831,13.4147477 19.0317541,12.8800003 Z M15.03125,0.881960815 C15.1682383,0.346934963 15.7130133,0.0242617405 16.2480392,0.16125 C18.4604327,0.727712235 20.0078433,2.72123893 20.0078433,5.005 C20.0078433,7.28876107 18.4604327,9.28228777 16.2480392,9.84875 C15.7130133,9.98573826 15.1682383,9.66306504 15.03125,9.12803919 C14.8942617,8.59301333 15.216935,8.04823826 15.7519608,7.91125 C17.0793969,7.57137266 18.0078433,6.37525664 18.0078433,5.005 C18.0078433,3.63474336 17.0793969,2.43862734 15.7519608,2.09875 C15.216935,1.96176174 14.8942617,1.41698667 15.03125,0.881960815 Z" id="Combined-Shape"></path>
        </g>
    </g>
</svg>