<?xml version="1.0" encoding="UTF-8"?>
<svg width="24px" height="24px" viewBox="0 0 24 24" version="1.1" xmlns="http://www.w3.org/2000/svg" xmlns:xlink="http://www.w3.org/1999/xlink">
    <title>icon/general/components</title>
    <g id="Symbols" stroke="none" stroke-width="1" fill="none" fill-rule="evenodd">
        <g id="layers" fill="#191015" transform="translate(0.999781, 1.000000)">
            <path d="M21.8946462,15.5527864 C22.1239934,16.0114807 21.9677329,16.5621719 21.548733,16.8362552 L21.4474327,16.8944272 L11.4474327,21.8944272 C11.2061234,22.0150818 10.9281935,22.0323182 10.6764212,21.9461363 L10.5530055,21.8944272 L0.553005461,16.8944272 C0.0590269636,16.6474379 -0.141197383,16.0467649 0.105791866,15.5527864 C0.335139025,15.0940921 0.869448229,14.8886858 1.34011481,15.0594357 L1.44743265,15.1055728 L11.0002191,19.881 L20.5530055,15.1055728 C21.046984,14.8585836 21.647657,15.0588079 21.8946462,15.5527864 Z M21.8946462,10.5527864 C22.1239934,11.0114807 21.9677329,11.5621719 21.548733,11.8362552 L21.4474327,11.8944272 L11.4474327,16.8944272 C11.2061234,17.0150818 10.9281935,17.0323182 10.6764212,16.9461363 L10.5530055,16.8944272 L0.553005461,11.8944272 C0.0590269636,11.6474379 -0.141197383,11.0467649 0.105791866,10.5527864 C0.335139025,10.0940921 0.869448229,9.88868578 1.34011481,10.0594357 L1.44743265,10.1055728 L11.0002191,14.881 L20.5530055,10.1055728 C21.046984,9.85858356 21.647657,10.0588079 21.8946462,10.5527864 Z M11.4474327,0.105572809 L21.4474327,5.10557281 C22.1844812,5.47409708 22.1844812,6.52590292 21.4474327,6.89442719 L11.4474327,11.8944272 C11.1659052,12.0351909 10.834533,12.0351909 10.5530055,11.8944272 L0.553005461,6.89442719 C-0.184043078,6.52590292 -0.184043078,5.47409708 0.553005461,5.10557281 L10.5530055,0.105572809 C10.834533,-0.0351909363 11.1659052,-0.0351909363 11.4474327,0.105572809 Z M11.0002191,2.118 L3.23621906,6 L11.0002191,9.881 L18.7632191,6 L11.0002191,2.118 Z" id="Combined-Shape"></path>
        </g>
    </g>
</svg>