<?xml version="1.0" encoding="UTF-8"?>
<svg width="24px" height="24px" viewBox="0 0 24 24" version="1.1" xmlns="http://www.w3.org/2000/svg" xmlns:xlink="http://www.w3.org/1999/xlink">
    <title>icon/general/debug</title>
    <g id="Symbols" stroke="none" stroke-width="1" fill="none" fill-rule="evenodd">
        <g id="terminal" fill="#191015" transform="translate(3.000000, 4.000000)">
            <path d="M0.292893219,0.292893219 C0.65337718,-0.0675907428 1.22060824,-0.0953202783 1.61289944,0.209704612 L1.70710678,0.292893219 L7.70710678,6.29289322 C8.06759074,6.65337718 8.09532028,7.22060824 7.79029539,7.61289944 L7.70710678,7.70710678 L1.70710678,13.7071068 C1.31658249,14.0976311 0.683417511,14.0976311 0.292893219,13.7071068 C-0.0675907428,13.3466228 -0.0953202783,12.7793918 0.209704612,12.3871006 L0.292893219,12.2928932 L5.585,7 L0.292893219,1.70710678 C-0.0675907428,1.34662282 -0.0953202783,0.779391764 0.209704612,0.387100557 L0.292893219,0.292893219 Z M17,14 C17.5522847,14 18,14.4477153 18,15 C18,15.5128358 17.6139598,15.9355072 17.1166211,15.9932723 L17,16 L9,16 C8.44771525,16 8,15.5522847 8,15 C8,14.4871642 8.38604019,14.0644928 8.88337887,14.0067277 L9,14 L17,14 Z" id="Combined-Shape"></path>
        </g>
    </g>
</svg>